# xmcd
#
# Track frame offsets:
#	150
#	18942
#	36674
#	53382
#	70258
#	87050
#	103384
#	122818
#	140395
#	158247
#	177286
#	188205
#	205686
#	219588
#	235181
#	250054
#	269488
#
# Disc length: 3829 seconds
#
# Revision: 1
# Processed by: cddbd v1.5.1PL2 Copyright (c) Steve Scherf et al.
# Submitted via: audiograbber 1.83.01
#
DISCID=f10ef311
DTITLE=Various Artist - TT-270
DYEAR=1900
DGENRE=Country
TTITLE0=Little Big Town - Boondocks
TTITLE1=Dierks Bentley - Domestic, Light and Cold
TTITLE2=Ryan Shupe and The Rubber Band - Dream Big
TTITLE3=Lee Ann Womack - He Oughta Know That By Now
TTITLE4=Jason Aldean - Hicktown
TTITLE5=Hot Apple Pie - Hillbillies
TTITLE6=Carrie Underwood - Inside Your Heaven
TTITLE7=Chris Cagle - Miss Me Baby
TTITLE8=Faith Hill - Mississippi Girl
TTITLE9=Billy Currington - Must Be Doin' Somethin' Right
TTITLE10=Clint Black - Rainbow In The Rain
TTITLE11=Craig Morgan - Redneck Yacht Club
TTITLE12=George Strait - Texas
TTITLE13=Blaine Larsen - The Best Man
TTITLE14=Tracy Lawrence - Used To The Pain
TTITLE15=Carrie Underwood - Inside Your Heaven - Vocals
TTITLE16=Faith Hill - Mississippi Girl - Vocals
EXTD=
EXTT0=
EXTT1=
EXTT2=
EXTT3=
EXTT4=
EXTT5=
EXTT6=
EXTT7=
EXTT8=
EXTT9=
EXTT10=
EXTT11=
EXTT12=
EXTT13=
EXTT14=
EXTT15=
EXTT16=
PLAYORDER=
